<svg xmlns="http://www.w3.org/2000/svg" xmlns:xlink="http://www.w3.org/1999/xlink"
  viewBox="0 0 200 200" >
  <style>
    <![CDATA[
    #r {
      animation: ro 3000ms linear infinite normal forwards
    }

    @keyframes ro {
      0% {
        transform: translate(48.560912px, 52.314667px) rotate(0deg)
      }

      100% {
        transform: translate(48.560912px, 52.314667px) rotate(90deg)
      }
    }
    ]]>
  </style>
  <g id="r" transform="translate(48.560912,52.314667) rotate(0)">
    <g transform="translate(-230.935013,-40.290001)">
      <circle r="15.79" transform="translate(230.93 40.53)" fill="none" stroke="rgba(25, 118, 210, 0.1)" stroke-width="3"
        stroke-miterlimit="10" />
      <path
        d="M285,69.43v-4.24c.002668-.81503-.319921-1.597447-.896237-2.173763s-1.358733-.898905-2.173763-.896237h-.45c-1.306447-.002318-2.467327-.833814-2.89-2.07-.27-.77-.58-1.52-.92-2.25-.564361-1.170594-.32779-2.56997.59-3.49l.31-.31c.577096-.572649.901681-1.352002.901681-2.165s-.324585-1.592351-.901681-2.165l-3-3c-1.200988-1.192334-3.139012-1.192334-4.34,0l-.23.23c-.942814.931468-2.373494,1.160537-3.56.57-.73447-.374431-1.488938-.708266-2.26-1-1.232088-.433985-2.059922-1.593752-2.07-2.9v-.3c.000009-1.691617-1.368392-3.06449-3.06-3.07h-4.25c-1.691608.00551-3.060009,1.378383-3.06,3.07v.15c-.007134,1.32504-.860943,2.497014-2.12,2.91-.819787.283704-1.621307.617671-2.4,1-1.178611.565739-2.585205.333971-3.52-.58l-.08-.09c-1.200988-1.192334-3.139012-1.192334-4.34,0l-3,3c-.577096.572649-.901681,1.352002-.901681,2.165s.324585,1.592351.901681,2.165v0c.929264.940485,1.154627,2.369126.56,3.55-.378334.804391-.712171,1.628968-1,2.47-.419578,1.245645-1.585594,2.085981-2.9,2.09v0c-.81503-.002668-1.597447.319921-2.173763.896237s-.898905,1.358733-.896237,2.173763v4.24c0,1.695514,1.374486,3.07,3.07,3.07v0c1.31079.005597,2.474427.840206,2.9,2.08.286033.844962.619906,1.672966,1,2.48.594627,1.180874.369264,2.609515-.56,3.55v0c-.577096.572649-.901681,1.352002-.901681,2.165s.324585,1.592351.901681,2.165l3,3c1.198722,1.19782,3.141278,1.19782,4.34,0l.08-.08c.929652-.922919,2.340223-1.15935,3.52-.59.77675.3866,1.578549.720682,2.4,1c1.256815.421972,2.107952,1.594293,2.12,2.92v.15c0,.811562.322392,1.589885.896253,2.163747s1.352184.896253,2.163747.896253h4.25c.811562,0,1.589885-.322392,2.163747-.896253s.896253-1.352185.896253-2.163747v-.32c.007112-1.307208.83604-2.468507,2.07-2.9.771062-.291734,1.52553-.625569,2.26-1c1.183434-.599493,2.617769-.373867,3.56.56l.23.23c1.198722,1.19782,3.141278,1.19782,4.34,0l3-3c.577096-.572649.901681-1.352002.901681-2.165s-.324585-1.592351-.901681-2.165l-.31-.32c-.91779-.92003-1.154361-2.319406-.59-3.49.345204-.730252.652283-1.477923.92-2.24.422673-1.236186,1.583553-2.067682,2.89-2.07h.45c1.672356.000319,3.037316-1.337963,3.07-3.01Z"
        transform="translate(-27-27)" fill="none" stroke="rgba(25, 118, 210, 0.1)" stroke-width="3" stroke-miterlimit="10" />
    </g>
  </g>
</svg>