<svg id="Layer_4" data-name="Layer 4" xmlns="http://www.w3.org/2000/svg" viewBox="0 0 389.48 82.98">
  <defs>
    <style>
      .logo-1 {
        opacity: 0.8;
        font-size: 48px;
        fill: #333;
        font-family: Poppins-Regular, Poppins;
        letter-spacing: 0.01em;
      }

      .logo-2 {
        fill: none;
        stroke: var(--p);
        stroke-miterlimit: 10;
        stroke-width: 3px;
      }
    </style>
  </defs>
  <title>logo</title><text class="logo-1" transform="translate(72.99 53.93)">webinizer</text>
  <path class="logo-2"
    d="M43.69,43.26a21.72,21.72,0,0,1,30.53-.18l11.2-11.2L83.55,30a4.24,4.24,0,0,0-6,0l-.14.15a4.25,4.25,0,0,1-4.9.77,31.29,31.29,0,0,0-3.28-1.39,4.25,4.25,0,0,1-2.85-4v-.16a4.22,4.22,0,0,0-4.22-4.22H56.35a4.22,4.22,0,0,0-4.22,4.22h0a4.25,4.25,0,0,1-2.9,4,28.74,28.74,0,0,0-3.41,1.4A4.25,4.25,0,0,1,41,30a4.22,4.22,0,0,0-6,0l-4.13,4.13a4.22,4.22,0,0,0,0,6A4.23,4.23,0,0,1,31.66,45a32.17,32.17,0,0,0-1.4,3.41,4.24,4.24,0,0,1-4,2.91h0A4.22,4.22,0,0,0,22,55.49v5.84a4.22,4.22,0,0,0,4.22,4.22h.17a4.23,4.23,0,0,1,4,2.85,31.13,31.13,0,0,0,1.39,3.27,4.24,4.24,0,0,1-.77,4.9l-.14.15a4.21,4.21,0,0,0,0,6l1.87,1.88L43.5,73.8A21.73,21.73,0,0,1,43.69,43.26Z"
    transform="translate(-20.52 -19.66)" />
  <path class="logo-2" d="M43.54,74.27A21.73,21.73,0,1,0,74.27,43.54l-.19-.18L43.36,74.08Z"
    transform="translate(-20.52 -19.66)" />
</svg>